<svg xmlns="http://www.w3.org/2000/svg" fill="none" viewBox="0 0 280 280">
  <path fill="#F5EFDB" d="M41.5 212.398c7.616 18.585 20.034 22.453 28.765 18.585 16.885-7.482 60.747-15.84 105.794 3.808 59.663 26.023 72.357-13.239 53.316-52.954-19.041-39.714-25.495-79.877-3.544-102.004s-6.774-56.742-57.787-20.71c-32.966 23.285-57.16 18.1-70.152 11.517-12.244-6.204-25.861-12.69-38.62-7.625-15.48 6.145-21.58 19.468 1.973 49.231C94.621 154.422 24.428 170.74 41.5 212.398"/>
  <path fill="#8FAE55" d="M72.51 121.864h118.528v91.156a.7.7 0 0 1-.205.494.7.7 0 0 1-.495.206H73.21a.7.7 0 0 1-.7-.7z"/>
  <path fill="#6F8A3A" d="M161.304 86.143H106.19l-33.68 35.721h118.528z"/>
  <path fill="#80A13E" d="m83.737 71.854 22.453 14.289-33.68 35.721-25.515-19.391zm100.02 0-22.454 14.289 29.735 35.721 29.461-19.391z"/>
  <path fill="#6F8A3A" d="M120.67 72.585a2.716 2.716 0 0 0 1.338-3.517L111.907 45.25a2.716 2.716 0 0 0-3.667-1.395l-1.946.923a2.72 2.72 0 0 0-1.241 3.721L117.1 71.394a2.72 2.72 0 0 0 3.57 1.19m12.664-2.308a1.784 1.784 0 0 0 1.655-1.83l-.499-16.956a1.78 1.78 0 0 0-.586-1.27 1.8 1.8 0 0 0-1.322-.456l-1.409.1a1.78 1.78 0 0 0-1.644 1.978l1.907 16.856a1.783 1.783 0 0 0 1.898 1.578m9.776 6.268c1.262.73 3.032.06 4.014-1.517l17.439-28.008c1.042-1.673.795-3.712-.542-4.486l-1.865-1.078c-1.338-.773-3.229.03-4.159 1.767l-15.574 29.086c-.877 1.638-.574 3.506.687 4.236"/>
</svg>
