<svg xmlns="http://www.w3.org/2000/svg" data-name="Слой 1" viewBox="0 0 353.82 246.38">
  <path fill="#bacd64" d="M125.35 41.97h.91v109.28h-.91z"/>
  <path fill="#bacd64" d="M58.38 120.59h75.44v.91H58.38z"/>
  <path fill="#a1b73e" d="M313.55 206.94H165.44c-6.88 0-12.47-5.84-12.47-13.03V89.63c0-7.18 5.59-13.03 12.47-13.03h148.11c6.88 0 12.47 5.84 12.47 13.03v104.28c0 7.18-5.59 13.03-12.47 13.03M165.43 77.7c-6.27 0-11.37 5.35-11.37 11.93v104.28c0 6.58 5.1 11.93 11.37 11.93h148.11c6.27 0 11.37-5.35 11.37-11.93V89.63c0-6.58-5.1-11.93-11.37-11.93z"/>
  <path fill="#656467" d="M263.14 160.52h-1.11v-1.1c1.62 0 3.3 0 4.93-.03l.02 1.1c-1.27.02-2.56.04-3.84.04Zm-6.06-.09c-1.65-.05-3.32-.12-4.94-.21l.06-1.09c1.62.09 3.27.16 4.92.21l-.03 1.09Zm14.86-.1-.05-1.09c1.65-.07 3.3-.17 4.92-.29l.08 1.09c-1.62.12-3.29.21-4.95.29m-24.74-.44c-3.1-.25-4.92-.49-4.94-.5l.14-1.09s1.82.24 4.89.49l-.09 1.09Zm34.62-.27-.11-1.09c1.64-.16 3.29-.35 4.89-.56l.14 1.09c-1.61.21-3.27.4-4.92.57Zm9.83-1.29-.18-1.08c1.63-.27 3.26-.57 4.84-.88l.22 1.07c-1.59.32-3.23.62-4.88.89m9.71-1.96-.26-1.07c1.61-.39 3.21-.81 4.75-1.26l.3 1.05c-1.55.45-3.17.87-4.79 1.27Zm9.52-2.76-.35-1.04c1.57-.54 3.12-1.11 4.61-1.7l.41 1.02c-1.5.6-3.07 1.18-4.66 1.72Zm9.23-3.7-.47-.99c1.5-.7 2.97-1.45 4.37-2.23l.53.96c-1.42.79-2.91 1.54-4.43 2.26m8.7-4.82-.6-.92c1.38-.9 2.72-1.85 3.99-2.82l.67.87c-1.29.99-2.65 1.96-4.06 2.87m7.86-6.07-.74-.81c1.2-1.11 2.36-2.27 3.44-3.46l.81.74c-1.1 1.21-2.28 2.4-3.51 3.53m6.67-7.38-.88-.65c.97-1.3 1.88-2.66 2.7-4.05l.94.56a52 52 0 0 1-2.76 4.14m5.1-8.52-.99-.47c.68-1.45 1.31-2.96 1.86-4.5l1.03.37c-.56 1.57-1.2 3.11-1.9 4.59Zm3.37-9.34-1.06-.28c.4-1.54.75-3.15 1.03-4.76l1.08.19c-.29 1.65-.64 3.28-1.05 4.85m1.71-9.78-1.09-.1c.15-1.59.25-3.23.29-4.88l1.1.03c-.04 1.68-.15 3.34-.3 4.96Zm-.82-9.88c-.06-1.6-.16-3.24-.31-4.89l1.09-.1c.15 1.67.26 3.34.31 4.95zm-.88-9.76c-.22-1.58-.49-3.21-.79-4.84l1.08-.2c.31 1.65.58 3.29.8 4.89zm-1.79-9.66c-.13-.59-.28-1.19-.42-1.78-.24-1-.51-2-.79-2.96l1.05-.31c.29.98.56 1.99.8 3.01.14.6.29 1.2.42 1.8l-1.07.24Zm-2.77-9.35a54 54 0 0 0-1.95-4.46l.98-.48c.72 1.46 1.39 2.99 1.99 4.55zM10.42 58.6l-1-.46c.69-1.51 1.41-3.02 2.12-4.47l.98.49c-.71 1.44-1.42 2.93-2.11 4.44Zm332.55-1.95c-.85-1.38-1.78-2.72-2.75-4l.87-.67c1 1.31 1.95 2.68 2.82 4.09l-.93.58ZM14.79 49.8l-.96-.52c.79-1.47 1.61-2.92 2.43-4.31l.94.56c-.82 1.38-1.63 2.82-2.41 4.28Zm322.28-.86a51 51 0 0 0-3.49-3.38l.72-.82c1.25 1.1 2.45 2.26 3.57 3.45zm-7.29-6.42c-1.29-.94-2.65-1.85-4.06-2.71l.57-.94c1.43.87 2.82 1.8 4.13 2.76l-.65.89ZM19.77 41.35l-.92-.59c.9-1.4 1.83-2.78 2.77-4.1l.89.63c-.93 1.31-1.85 2.68-2.75 4.06Zm301.69-3.92c-1.41-.72-2.9-1.42-4.43-2.08l.43-1.01c1.55.67 3.06 1.38 4.49 2.11l-.5.98Zm-8.98-3.89c-1.49-.54-3.06-1.07-4.65-1.56l.32-1.05c1.61.5 3.19 1.03 4.7 1.58l-.38 1.03Zm-287.04-.19-.86-.67a92 92 0 0 1 3.15-3.83l.83.72c-1.05 1.22-2.1 2.49-3.11 3.79Zm277.67-2.72c-1.54-.4-3.14-.79-4.78-1.16l.24-1.07c1.65.37 3.26.76 4.82 1.17zm-9.59-2.15c-1.56-.3-3.2-.58-4.85-.85l.18-1.08c1.66.27 3.3.56 4.88.86l-.2 1.08Zm-9.72-1.58c-1.57-.22-3.22-.43-4.89-.62l.13-1.09c1.67.2 3.33.41 4.91.63l-.15 1.09Zm-251.94-.96-.79-.76c1.15-1.19 2.35-2.36 3.54-3.47l.74.81a87 87 0 0 0-3.5 3.43Zm242.16-.2c-1.58-.16-3.23-.31-4.91-.46l.1-1.09c1.68.15 3.34.3 4.92.46zm-9.82-.86c-1.56-.12-3.22-.23-4.92-.35l.07-1.09c1.7.11 3.36.23 4.93.35zm-9.85-.65c-1.63-.1-3.27-.19-4.91-.28l.06-1.09c1.64.09 3.28.18 4.92.28l-.06 1.09Zm-9.83-.53-4.7-.24h-.23l.05-1.11h.23c1.57.09 3.13.17 4.7.25l-.06 1.1Zm-9.87-.5c-1.65-.08-3.3-.17-4.95-.26l.06-1.09c1.65.09 3.29.18 4.94.26l-.06 1.09Zm-9.88-.54c-1.74-.1-3.35-.2-4.93-.31l.07-1.09 4.92.31zm-9.86-.66c-1.69-.13-3.35-.26-4.93-.4l.09-1.09c1.57.14 3.23.27 4.92.4zm-9.85-.85c-1.68-.17-3.33-.35-4.92-.53l.13-1.09c1.58.19 3.23.36 4.9.53zm-9.83-1.16c-1.67-.23-3.32-.47-4.89-.73l.17-1.08c1.57.25 3.21.49 4.87.72zM39.05 19.3l-.69-.85c1.28-1.05 2.6-2.07 3.94-3.02l.64.89c-1.31.94-2.62 1.95-3.88 2.98Zm146.41-.88a143 143 0 0 1-4.85-.99l.24-1.07c1.56.34 3.18.67 4.82.98l-.2 1.08Zm-9.67-2.13c-.72-.18-1.44-.38-2.14-.57l-2.63-.72.29-1.06 2.63.73c.7.19 1.41.38 2.12.56zm-9.52-2.6c-1.58-.43-3.17-.86-4.76-1.29l.28-1.06c1.59.43 3.18.86 4.76 1.29l-.29 1.06Zm-119.28-.1-.58-.93c1.4-.88 2.84-1.72 4.29-2.5l.52.96c-1.43.77-2.85 1.6-4.23 2.47m109.75-2.46c-1.64-.43-3.25-.85-4.77-1.24l.27-1.06c1.53.39 3.14.81 4.78 1.24zM55.6 8.94l-.46-1c1.49-.69 3.03-1.34 4.57-1.93l.39 1.02c-1.52.59-3.04 1.23-4.51 1.91Zm91.59-.24a400 400 0 0 0-4.79-1.15l.25-1.07c1.55.36 3.17.75 4.8 1.15l-.26 1.06Zm-9.6-2.23c-1.63-.36-3.25-.7-4.82-1.02l.22-1.07c1.57.32 3.2.66 4.83 1.02l-.24 1.07ZM64.72 5.41l-.33-1.05c1.56-.49 3.16-.95 4.77-1.36l.27 1.06c-1.59.4-3.17.86-4.71 1.34Zm63.22-.91c-1.64-.3-3.27-.59-4.85-.85l.18-1.08c1.59.26 3.23.55 4.87.86l-.2 1.08ZM74.22 2.99l-.21-1.08c1.6-.31 3.24-.59 4.89-.83l.16 1.08c-1.63.23-3.26.51-4.84.82Zm44.01-.1c-1.65-.24-3.29-.45-4.88-.64l.13-1.09c1.6.19 3.25.41 4.9.64l-.16 1.08Zm-9.77-1.15c-1.65-.15-3.3-.28-4.9-.37l.07-1.09c1.61.1 3.27.22 4.94.38l-.1 1.09ZM83.93 1.6l-.1-1.09c1.61-.15 3.28-.27 4.94-.36l.05 1.1c-1.65.08-3.3.2-4.89.35m14.72-.45c-1.24-.03-2.48-.05-3.68-.05h-1.23V0h1.23c1.22 0 2.47.02 3.71.05z"/>
  <path fill="#b9cd60" d="M342.99 52.75c-.75-2.91-1.91-5.67-3.4-8.2l3.46-5.2-4.8-4.8-4.8-4.8-5.21 3.46a31.7 31.7 0 0 0-8.2-3.4l-1.23-6.12h-13.58L304 29.81c-2.91.75-5.67 1.91-8.2 3.4l-5.2-3.46-4.8 4.8-4.8 4.8 3.46 5.2a31.7 31.7 0 0 0-3.4 8.2l-6.12 1.23v13.58l6.12 1.23c.75 2.91 1.91 5.67 3.4 8.2l-3.46 5.2 4.8 4.8 4.8 4.8 5.2-3.46a31.7 31.7 0 0 0 8.2 3.4l1.23 6.12h13.58l1.23-6.12c2.91-.75 5.66-1.91 8.2-3.4l5.21 3.46 4.8-4.8 4.8-4.8-3.46-5.2a31.7 31.7 0 0 0 3.4-8.2l6.12-1.23V53.98zm-30.96 31.81c-13.14 0-23.79-10.65-23.79-23.79s10.65-23.79 23.79-23.79 23.79 10.65 23.79 23.79-10.65 23.79-23.79 23.79"/>
  <path fill="#b8bca8" d="M144.5 63.71h155.05c6.89 0 12.48 5.59 12.48 12.48v104.28c0 6.89-5.59 12.48-12.48 12.48H144.5c-6.89 0-12.48-5.59-12.48-12.48V76.19c0-6.89 5.59-12.48 12.48-12.48" opacity=".24"/>
  <path fill="#bacd64" d="M215.51 96.35c-5.53-15.46-20.3-24.95-35.87-24.48-3.77.11-7.59.81-11.33 2.15-11.34 4.06-19.47 13.09-22.81 23.76-2.32 7.4-2.33 15.58.48 23.44a37 37 0 0 0 6.63 11.49c9.66 11.36 25.7 16.16 40.57 10.84 19.2-6.87 29.2-28 22.33-47.2m-25.45 38.5c-11.15 3.99-23.17.39-30.42-8.13a27.6 27.6 0 0 1-4.97-8.62 27.5 27.5 0 0 1-.36-17.57c2.5-8 8.6-14.78 17.1-17.82 2.81-1 5.67-1.53 8.49-1.61 11.67-.35 22.75 6.77 26.9 18.36 5.15 14.4-2.35 30.24-16.75 35.39Z"/>
  <path fill="#556315" d="m154.31 100.53-8.82-2.75c3.34-10.67 11.47-19.71 22.81-23.76 3.75-1.34 7.56-2.04 11.33-2.15l.28 9.24c-2.83.09-5.69.61-8.49 1.61-8.5 3.04-14.6 9.81-17.1 17.82Z"/>
  <path fill="#495121" d="m155.35 119.83-8.47 3.69c-.33-.75-.63-1.52-.91-2.3a36.74 36.74 0 0 1-.48-23.44l8.82 2.75a27.5 27.5 0 0 0 .36 17.57c.21.59.44 1.16.68 1.73"/>
  <path fill="#a1b73e" d="M152.6 132.71c-2.3-2.71-4.25-5.79-5.72-9.19l8.47-3.69c1.11 2.55 2.56 4.86 4.29 6.89z"/>
  <path fill="#9bab53" d="M154.9 185.81c7.52 3.56 16.22 1.67 21.63-4.08 1.31-1.39 2.43-3.01 3.29-4.83a18.68 18.68 0 0 0-.34-16.69 18.65 18.65 0 0 0-8.57-8.23 18.5 18.5 0 0 0-6.5-1.74c-7.53-.61-15 3.42-18.42 10.65-4.42 9.34-.43 20.5 8.91 24.92m-4.68-22.91c2.57-5.43 8.16-8.44 13.81-7.99 1.35.11 2.7.41 4.01.93a14 14 0 0 1 7.29 6.54c1.97 3.76 2.21 8.38.25 12.51-.65 1.37-1.48 2.58-2.47 3.62-4.06 4.31-10.58 5.73-16.22 3.06-7-3.31-10-11.68-6.68-18.68Z"/>
  <path fill="#556315" d="m175.33 162.38 4.15-2.17c2.63 5.02 2.95 11.17.34 16.69-.86 1.82-1.98 3.44-3.29 4.83l-3.41-3.21c.98-1.04 1.82-2.26 2.47-3.62a13.99 13.99 0 0 0-.25-12.51Z"/>
  <path fill="#495121" d="m168.04 155.84 1.72-4.36c.39.15.77.32 1.15.5a18.65 18.65 0 0 1 8.57 8.23l-4.15 2.17a13.95 13.95 0 0 0-6.43-6.17c-.29-.13-.57-.26-.86-.37"/>
  <path fill="#a1b73e" d="M164.41 150.24c1.8.14 3.6.55 5.35 1.24l-1.72 4.36c-1.31-.52-2.66-.82-4.01-.93zm147.62-74.05v104.28c0 6.89-5.59 12.48-12.48 12.48H230.9V63.71h68.65c6.89 0 12.48 5.59 12.48 12.48"/>
  <path fill="#fff" d="M242.96 77.12h57.02c.9 0 1.63.73 1.63 1.63v3.31c0 .9-.73 1.63-1.63 1.63h-57.02c-.9 0-1.63-.73-1.63-1.63v-3.31c0-.9.73-1.63 1.63-1.63"/>
  <path fill="#b9cd60" d="M242.96 91.21h57.02c.9 0 1.63.73 1.63 1.63v3.31c0 .9-.73 1.63-1.63 1.63h-57.02c-.9 0-1.63-.73-1.63-1.63v-3.31c0-.9.73-1.63 1.63-1.63"/>
  <rect width="60.28" height="74.26" x="241.33" y="107.36" fill="#b9cd60" rx="5.47" ry="5.47"/>
  <path fill="#fff" d="M244.14 104.21h7.95c3.71 0 6.73 3.02 6.73 6.73v41.58c0 3.71-3.01 6.73-6.73 6.73h-7.95c-3.71 0-6.73-3.01-6.73-6.73v-41.58c0-3.71 3.01-6.73 6.73-6.73" opacity=".58"/>
  <path fill="#bacd64" d="M98.02 57.74h137.56v.91H98.02z"/>
  <path fill="#a1b73e" d="M111.8 50.19c-4.07 0-7.37-3.31-7.37-7.37s3.31-7.37 7.37-7.37 7.37 3.31 7.37 7.37-3.31 7.37-7.37 7.37m0-13.65c-3.46 0-6.28 2.82-6.28 6.28s2.82 6.28 6.28 6.28 6.28-2.82 6.28-6.28-2.82-6.28-6.28-6.28"/>
  <path fill="#bccd6f" d="M80.56 176.31h53.97c4.45 0 8.05 3.61 8.05 8.05v53.96c0 4.45-3.61 8.05-8.05 8.05H80.56c-4.45 0-8.05-3.61-8.05-8.05v-53.97c0-4.45 3.61-8.05 8.05-8.05Z" opacity=".82"/>
  <rect width="70.08" height="53.22" x="67.08" y="63.71" fill="#c8cdb7" opacity=".2" rx="7.02" ry="7.02"/>
  <rect width="27.22" height="7.54" x="110.01" y="186.61" fill="#fff" rx="1.65" ry="1.65"/>
  <path fill="#fff" d="M113.8 197.98h19.64c2.09 0 3.79 1.7 3.79 3.79v32.37c0 2.09-1.7 3.79-3.79 3.79H113.8c-2.09 0-3.79-1.7-3.79-3.79v-32.37c0-2.09 1.7-3.79 3.79-3.79m-25.55 9.88a12.52 12.52 0 0 0 13.92-4.19c1.61-2.08 2.58-4.68 2.62-7.51 0-.28 0-.56-.02-.84-.07-1.26-.32-2.47-.73-3.6a12.55 12.55 0 0 0-11.61-8.25c-2.89-.04-5.56.9-7.69 2.52a12.48 12.48 0 0 0-4.99 9.84c-.07 5.57 3.5 10.33 8.51 12.02Zm-5.37-11.98c.04-3 1.48-5.65 3.69-7.34a9.34 9.34 0 0 1 5.82-1.92c4.02.05 7.41 2.62 8.71 6.18.31.85.5 1.76.55 2.7.01.21.01.42.01.63a9.43 9.43 0 0 1-1.96 5.63 9.36 9.36 0 0 1-7.54 3.64 9.2 9.2 0 0 1-2.89-.49 9.4 9.4 0 0 1-6.38-9.02Z"/>
  <path fill="#556315" d="m99.69 201.75 2.48 1.92c-2.32 3-5.98 4.91-10.06 4.85-1.35-.02-2.64-.25-3.86-.66l1.01-2.97c.91.31 1.88.48 2.89.49 3.06.04 5.8-1.39 7.54-3.64Z"/>
  <path fill="#495121" d="m101.64 195.49 3.13-.17c.01.28.02.56.02.84-.04 2.83-1.01 5.43-2.62 7.51l-2.48-1.92a9.3 9.3 0 0 0 1.96-5.63c0-.21 0-.42-.01-.63m0 0c-.05-.94-.24-1.85-.55-2.69s2.95-1.08 2.95-1.08c.41 1.13.67 2.34.73 3.6z"/>
  <path fill="#a1b73e" d="M84.73 185.99c2.14-1.61 4.81-2.56 7.69-2.52 5.36.07 9.88 3.49 11.61 8.25l-2.94 1.08c-1.3-3.57-4.69-6.14-8.71-6.19a9.38 9.38 0 0 0-5.82 1.92l-1.84-2.54Z"/>
  <path fill="#888" d="m0 87.43 15.09-23.59-7.66 3.48z"/>
  <path fill="#a6a6a6" d="m0 87.43.92-14.22 5.48-3.12z"/>
  <path fill="#676767" d="m11.62 69.27 1.89 2.48L0 87.43z"/>
  <path fill="#a1b73e" d="m137.15 70.73-.12 3.9H66.95l.12-3.9c0-3.88 3.14-7.02 7.02-7.02h56.04c3.88 0 7.02 3.14 7.02 7.02"/>
  <path fill="#bacd64" d="M89.06 112.45h-14.1c-1.82 0-3.3-1.48-3.3-3.3V81.04c0-1.82 1.48-3.3 3.3-3.3h14.1c1.82 0 3.3 1.48 3.3 3.3v28.11c0 1.82-1.48 3.3-3.3 3.3m-14.1-33.62c-1.22 0-2.21.99-2.21 2.21v28.11c0 1.22.99 2.21 2.21 2.21h14.1c1.22 0 2.21-.99 2.21-2.21V81.04c0-1.22-.99-2.21-2.21-2.21z"/>
  <rect width="35.79" height="2.92" x="96.1" y="78.28" fill="#bacd64" rx="1.1" ry="1.1"/>
  <rect width="35.79" height="2.92" x="96.1" y="84.22" fill="#bacd64" rx="1.1" ry="1.1"/>
  <path fill="#9bab53" d="M190.17 154.37h22.18c.94 0 1.7.76 1.7 1.7v3.43c0 .94-.76 1.7-1.7 1.7h-22.18c-.94 0-1.7-.76-1.7-1.7v-3.42c0-.94.76-1.7 1.7-1.7Z"/>
  <path fill="#a1b73e" d="M190.17 165.49h22.18c.94 0 1.7.76 1.7 1.7v3.43c0 .94-.76 1.7-1.7 1.7h-22.18c-.94 0-1.7-.76-1.7-1.7v-3.42c0-.94.76-1.7 1.7-1.7Z"/>
  <path fill="#495121" d="M190.17 176.6h22.18c.94 0 1.7.76 1.7 1.7v3.43c0 .94-.76 1.7-1.7 1.7h-22.18c-.94 0-1.7-.76-1.7-1.7v-3.42c0-.94.76-1.7 1.7-1.7Z"/>
  <path fill="#c8cdb7" d="M78.29 69.64c0 1.68-1.36 3.05-3.05 3.05s-3.04-1.36-3.04-3.05 1.36-3.04 3.04-3.04 3.05 1.36 3.05 3.04"/>
  <path fill="#fff" d="m278.62 187.52 40.2.2c2.2.01 4-1.76 4.01-3.97l.13-26.83c.01-2.2-1.77-4-3.97-4.01l-40.2-.2c-2.2-.01-4 1.76-4.01 3.97l-.13 26.83a3.995 3.995 0 0 0 3.97 4.01" opacity=".86"/>
  <path fill="#bfcd83" d="m296.52 184.82 20.49.1c1.44 0 2.62-1.16 2.63-2.6l.11-22.79c0-1.44-1.16-2.62-2.6-2.63l-20.49-.1c-1.44 0-2.62 1.16-2.63 2.6l-.11 22.79c0 1.44 1.16 2.62 2.6 2.63m-4.874.065-11.84-.058a.73.73 0 0 1-.727-.734l.014-2.81a.73.73 0 0 1 .734-.726l11.84.058c.41.002.738.333.736.743l-.014 2.81a.74.74 0 0 1-.743.737Zm-12.156-5.635 12.51.06c.22 0 .4-.18.4-.4v-.47c0-.22-.17-.4-.4-.4l-12.51-.06c-.22 0-.4.18-.4.4v.47c0 .22.17.4.4.4"/>
  <g fill="#b9cd60">
    <path d="M290.51 160.1a5.89 5.89 0 0 0-5.71-3.9c-.6.02-1.21.13-1.8.34-1.81.65-3.1 2.08-3.63 3.78-.37 1.18-.37 2.48.08 3.73.05.12.09.25.15.37.24.54.54 1.03.91 1.46a5.89 5.89 0 0 0 6.46 1.73c3.06-1.09 4.65-4.46 3.56-7.52Zm-4.05 6.14c-1.78.64-3.69.06-4.84-1.29-.28-.32-.51-.69-.68-1.1-.04-.09-.08-.18-.11-.28-.34-.94-.33-1.92-.06-2.8.4-1.27 1.37-2.35 2.72-2.84.45-.16.9-.24 1.35-.26a4.41 4.41 0 0 1 1.61 8.56Z"/>
    <path d="m280.77 160.77-1.41-.44c.53-1.7 1.83-3.14 3.63-3.78.6-.21 1.2-.32 1.8-.34l.04 1.47c-.45.01-.91.1-1.35.26a4.37 4.37 0 0 0-2.72 2.84Z"/>
    <path d="m280.93 163.84-1.35.59c-.05-.12-.1-.24-.15-.37a5.82 5.82 0 0 1-.08-3.73l1.41.44c-.28.88-.28 1.86.06 2.8.03.09.07.18.11.28Z"/>
    <path d="M280.49 165.9c-.37-.43-.68-.92-.91-1.46l1.35-.59c.18.41.41.77.68 1.1z"/>
  </g>
  <g fill="#b9cd60">
    <path d="M283.89 170.43a2.42 2.42 0 0 0-2.35-1.6c-.25 0-.5.05-.74.14-.74.27-1.27.86-1.49 1.55-.15.48-.15 1.02.03 1.53l.06.15c.1.22.22.42.38.6a2.413 2.413 0 0 0 4.11-2.38Zm-1.67 2.52a1.806 1.806 0 0 1-2.27-.98c-.02-.04-.03-.08-.04-.11-.14-.39-.14-.79-.02-1.15a1.785 1.785 0 0 1 1.68-1.27 1.811 1.811 0 0 1 .66 3.52Z"/>
    <path d="m279.89 170.7-.58-.18c.22-.7.75-1.29 1.49-1.55.24-.09.49-.13.74-.14l.02.6a1.79 1.79 0 0 0-1.68 1.27Z"/>
    <path d="m279.95 171.96-.55.24-.06-.15c-.18-.51-.18-1.05-.03-1.53l.58.18c-.11.36-.12.76.02 1.15.01.04.03.08.04.11m-.18.85c-.15-.18-.28-.38-.38-.6l.55-.24c.07.17.17.32.28.45l-.46.39Z"/>
  </g>
  <path fill="#bacd64" d="M96.93 96.2h4.27v15.7h-4.27zm6.08-1.58h4.27v17.28h-4.27zm6.15 3.29h4.27v14h-4.27zm6.16-6.49h4.27v20.48h-4.27zm6.46 2.04h4.27v18.44h-4.27z"/>
</svg>
