<svg xmlns="http://www.w3.org/2000/svg" xmlns:xlink="http://www.w3.org/1999/xlink" fill="none" viewBox="0 0 100 100">
  <g clip-path="url(#a)">
    <mask id="b" width="100" height="100" x="0" y="0" maskUnits="userSpaceOnUse" style="mask-type:luminance">
      <path fill="#fff" d="M100 0H0v100h100z"/>
    </mask>
    <g mask="url(#b)">
      <path fill="#617A3A" d="M77.8 83.49V48H22.72l-.1 35.49h-5.1c-.38 0-.68.32-.66.7.07 1.67.06 3.33.01 5 0 .36.28.66.64.66h65.18c.33 0 .6-.27.6-.61v-5.25c0-.25-.21-.46-.46-.46l-5.03-.05zM61.37 55.17h8.02v7.82h-8.02zM30.81 56.3c.06-.45.3-.94.77-1.07.64-.18 5.47-.16 6.33-.06.74.09.84.44.92 1.14.1.91.13 5.37-.1 6.07-.05.17-.17.42-.32.5-.29.17-5.99.2-6.68.11-.68-.09-.83-.25-.92-.92-.14-1.09-.14-4.67 0-5.76zm8.02 19.92c-.07.78-.28 1.22-1.13 1.33-1.12.14-4.65.14-5.76 0-.68-.09-1.04-.44-1.13-1.13-.14-1.12-.14-4.65 0-5.76.09-.68.44-1.04 1.13-1.13 1.25-.16 4.25-.11 5.56 0 .32.03.84.04 1.07.26s.24.75.26 1.07c.12 1.38.13 3.99 0 5.35zM54 83.49h-8V70.67c0-.36.49-1.04.93-1.12.6-.12 6.31-.06 6.66.1.1.05.41.37.41.41V83.5zm.01-20.52H46.2v-7.81h7.81zm15.27 13.95c-.17.4-.61.58-1.01.63-.74.1-5.83.07-6.26-.12-.4-.17-.58-.61-.63-1.01-.13-.97-.16-5.27.01-6.16.08-.42.36-.58.76-.67.91-.2 5.32-.19 6.32-.06.68.09.83.25.92.92.1.75.07 6.04-.12 6.47z"/>
      <path fill="#F4CB4E" d="M77.59 27.75v16.02H22.62V26.65c0-1.76 1.43-3.19 3.19-3.19h6.55l.07-10.42a3.21 3.21 0 0 1 3.21-3.19h28.55c1.75 0 3.18 1.4 3.22 3.15l.24 10.46h6.78c1.75 0 3.17 1.42 3.17 3.17v1.12zM50.07 9.85l3.31 13.82v-5.64c0-.15-.5-.46-.72-.51-.57-.11-5.27-.07-5.63.1-.1.05-.41.37-.41.41v5.64h-5.44c-.08 0-.72.47-.72.51v5.74c0 1.13 6.15-.32 6.15.62v5.54c0 .15.5.46.72.51.54.1 5.39.05 5.64-.1.09-.06.41-.56.41-.62v-5.44c.26.11.61-.21.72-.21h5.13c.17 0 .31-.14.31-.31v-5.74c0-.28-.23-.51-.51-.51h-5.64z"/>
    </g>
  </g>
  <defs>
    <clipPath id="a">
      <path fill="#fff" d="M0 0h100v100H0z"/>
    </clipPath>
  </defs>
</svg>
