<svg xmlns="http://www.w3.org/2000/svg" xmlns:xlink="http://www.w3.org/1999/xlink" fill="none" viewBox="0 0 24 24">
  <g clip-path="url(#a)" filter="url(#b)">
    <g filter="url(#c)">
      <path fill="url(#d)" d="M2 9.318c0 3.729 4.02 7.673 6.962 10.06C10.294 20.46 10.96 21 12 21s1.706-.54 3.038-1.621C17.981 16.99 22 13.047 22 9.317c0-6.23-5.5-8.556-10-3.743C7.5.761 2 3.087 2 9.318"/>
    </g>
    <g filter="url(#e)">
      <path fill="#5698E6" fill-rule="evenodd" d="M16.5 6.25a.75.75 0 0 1 .75.75v1.25h1.25a.75.75 0 0 1 0 1.5h-1.25V11a.75.75 0 0 1-1.5 0V9.75H14.5a.75.75 0 0 1 0-1.5h1.25V7a.75.75 0 0 1 .75-.75" clip-rule="evenodd"/>
    </g>
  </g>
  <defs>
    <filter id="b" width="28" height="26" x="-2" y="-1" color-interpolation-filters="sRGB" filterUnits="userSpaceOnUse">
      <feFlood flood-opacity="0" result="BackgroundImageFix"/>
      <feColorMatrix in="SourceAlpha" result="hardAlpha" type="matrix" values="0 0 0 0 0 0 0 0 0 0 0 0 0 0 0 0 0 0 127 0"/>
      <feOffset/>
      <feGaussianBlur stdDeviation="2"/>
      <feComposite in2="hardAlpha" operator="out"/>
      <feColorMatrix type="matrix" values="0 0 0 0 0 0 0 0 0 0 0 0 0 0 0 0 0 0 0.2 0"/>
      <feBlend in2="BackgroundImageFix" mode="normal" result="effect1_dropShadow_1_27"/>
      <feBlend in="SourceGraphic" in2="effect1_dropShadow_1_27" mode="normal" result="shape"/>
    </filter>
    <filter id="c" width="20" height="21" x="2" y="0" color-interpolation-filters="sRGB" filterUnits="userSpaceOnUse">
      <feFlood flood-opacity="0" result="BackgroundImageFix"/>
      <feBlend in="SourceGraphic" in2="BackgroundImageFix" mode="normal" result="shape"/>
      <feColorMatrix in="SourceAlpha" result="hardAlpha" type="matrix" values="0 0 0 0 0 0 0 0 0 0 0 0 0 0 0 0 0 0 127 0"/>
      <feOffset dy="-3"/>
      <feGaussianBlur stdDeviation="2"/>
      <feComposite in2="hardAlpha" k2="-1" k3="1" operator="arithmetic"/>
      <feColorMatrix type="matrix" values="0 0 0 0 0 0 0 0 0 0 0 0 0 0 0 0 0 0 0.2 0"/>
      <feBlend in2="shape" mode="normal" result="effect1_innerShadow_1_27"/>
    </filter>
    <filter id="e" width="9.5" height="9.5" x="11.75" y="4.25" color-interpolation-filters="sRGB" filterUnits="userSpaceOnUse">
      <feFlood flood-opacity="0" result="BackgroundImageFix"/>
      <feColorMatrix in="SourceAlpha" result="hardAlpha" type="matrix" values="0 0 0 0 0 0 0 0 0 0 0 0 0 0 0 0 0 0 127 0"/>
      <feOffset/>
      <feGaussianBlur stdDeviation="1"/>
      <feComposite in2="hardAlpha" operator="out"/>
      <feColorMatrix type="matrix" values="0 0 0 0 0 0 0 0 0 0 0 0 0 0 0 0 0 0 0.2 0"/>
      <feBlend in2="BackgroundImageFix" mode="normal" result="effect1_dropShadow_1_27"/>
      <feBlend in="SourceGraphic" in2="effect1_dropShadow_1_27" mode="normal" result="shape"/>
      <feColorMatrix in="SourceAlpha" result="hardAlpha" type="matrix" values="0 0 0 0 0 0 0 0 0 0 0 0 0 0 0 0 0 0 127 0"/>
      <feOffset dy=".2"/>
      <feGaussianBlur stdDeviation="2"/>
      <feComposite in2="hardAlpha" k2="-1" k3="1" operator="arithmetic"/>
      <feColorMatrix type="matrix" values="0 0 0 0 0 0 0 0 0 0 0 0 0 0 0 0 0 0 0.2 0"/>
      <feBlend in2="shape" mode="normal" result="effect2_innerShadow_1_27"/>
    </filter>
    <linearGradient id="d" x1="12" x2="12" y1="3" y2="21" gradientUnits="userSpaceOnUse">
      <stop stop-color="#FDFEFF"/>
      <stop offset="1" stop-color="#F1F5FE"/>
    </linearGradient>
    <clipPath id="a">
      <path fill="#fff" d="M0 0h24v24H0z"/>
    </clipPath>
  </defs>
</svg>
