<svg xmlns="http://www.w3.org/2000/svg" xmlns:xlink="http://www.w3.org/1999/xlink" fill="none" viewBox="0 0 100 100">
  <g clip-path="url(#a)">
    <mask id="b" width="100" height="100" x="0" y="0" maskUnits="userSpaceOnUse" style="mask-type:luminance">
      <path fill="#fff" d="M100 0H0v100h100z"/>
    </mask>
    <g mask="url(#b)">
      <path fill="#617A3A" d="M57.82 70.81c-.14.15-1.18.82-1.37.88-3.6 1.07-11.45.43-15.35.02-1.34-.14-3.24-.78-4.6-.5-1.99.42-1.79 3.26-.26 3.76 1.93.63 4.96.64 7.02.82 5.38.47 16.83 1.99 18.9-4.79.14-.46.22-1.9.65-2.12 1.69-.31 3.37-.72 5.05-1.05 1.11-.22 2.34-.31 3.41-.51 2.65-.49 5.62-1.94 7.81.55 1.89 2.15 1.06 5.16-1.25 6.58-5 3.08-10.55 5.92-15.69 8.86-3.28 1.88-6.47 3.96-9.8 5.75-4.02 2.16-5.85 2.66-10.48 1.65-4.88-1.07-9.68-2.68-14.57-3.74-.62-.07-1.15.11-1.71.34-1.25.49-3.19 2.11-4.29 2.39-.98.26-1.8-.33-2.34-1.08-2.41-4.26-5.8-8.2-8.25-12.38-.88-1.5-1.18-3.01.63-3.91 6.11-3.11 12.1-7.44 18.25-10.37 4.12-1.96 5.97-.88 10.09-.15 4.62.81 9.3 1.55 13.83 2.59 1.28.29 2.58.25 3.71 1.08 1.63 1.2 1.97 3.8.61 5.33m-6.85-55.69c.33.33 1.59 1.86 1.86 1.81 2.49-2.49 4.91-5.34 8.19-6.78 8.08-3.55 17.22.09 20.69 8.14 1.06 2.45 1.48 5.93 1.12 8.59-.04.26-.61 2.27-.71 2.34-.48.31-2.24-.36-2.88-.47-13.87-2.34-25.56 10.14-21.17 23.78.32 1.01 1.28 2.03.45 3-.64.75-3.28 3.28-4.06 3.71-1.6.87-2.54.52-4-.41-7.38-7.92-15.66-15.09-23.02-23.03-1.1-1.19-2.15-2.48-2.92-3.92-5.74-10.84 2.49-23.9 14.8-23.09 5.19.34 8.13 2.88 11.64 6.31z"/>
      <path fill="#F4CB4E" d="M90 46.82c0 7.95-6.44 14.39-14.39 14.39s-14.39-6.44-14.39-14.39 6.44-14.39 14.39-14.39S90 38.87 90 46.82m-22.55 2.82h4.14c.2 0 1.15.19 1.21.38.28.84-.13 3.26.01 4.35.03.2.03.38.21.52.23.18 4.94.22 5.18.06.68-.45-.06-4.5.42-5.1.26-.33 2.7-.22 3.29-.21s1.56.48 1.96-.2c.37-.62 0-1.28-.01-1.89-.01-.68.24-3.02-.14-3.34-.49-.42-1.15-.08-1.66-.07-.58 0-3.63.14-3.67-.37.01-.07.11-.12.11-.15v-4.65c0-.52-1.56-.21-1.81-.21-.98.01-2.63-.16-3.49 0-.12.02-.36.12-.36.22v4.79c0 .16-.66.3-.82.31-.67.02-1.63-.1-2.3-.06-.45.02-2.09.1-2.27.32-.22.27-.21 5.17.01 5.32z"/>
    </g>
  </g>
  <defs>
    <clipPath id="a">
      <path fill="#fff" d="M0 0h100v100H0z"/>
    </clipPath>
  </defs>
</svg>
