<svg xmlns="http://www.w3.org/2000/svg" xmlns:xlink="http://www.w3.org/1999/xlink" fill="none" viewBox="0 0 1880 1694">
  <g clip-path="url(#a)">
    <path fill="#93E7E8" d="M1605.82 843.49c96.84 0 175.34-110.321 175.34-246.41 0-136.088-78.5-246.41-175.34-246.41s-175.34 110.322-175.34 246.41c0 136.089 78.5 246.41 175.34 246.41"/>
    <path fill="#56C5D8" d="M1069.92 0H739.9C401.52 0 127.21 274.32 127.21 612.7c0 180.57 146.38 326.95 326.94 326.95h901.53c180.57 0 326.94-146.38 326.94-326.94C1682.63 274.32 1408.31 0 1069.92 0m-57.95 1609.62h-214.1c-219.53 0-397.5-177.97-397.5-397.5 0-117.15 94.96-212.11 212.11-212.11h584.89c117.15 0 212.11 94.97 212.11 212.11 0 219.54-177.97 397.5-397.5 397.5z"/>
    <path fill="#4E1AA0" d="M1369.48 807.49H742.17c-85.01 0-154.76-65.16-154.76-145.55V538.68c0-80.38 69.75-143.32 154.76-140.61l627.31 20.01c75.92 2.42 136.78 64.92 136.78 139.61v114.54c0 74.7-60.86 135.25-136.78 135.25z"/>
    <path fill="#fff" d="M943.15 593.77c0 53.68-45.7 96.62-102.53 95.9-57.34-.72-104.21-45.55-104.21-100.11s46.86-97.48 104.21-95.87c56.83 1.59 102.53 46.39 102.53 100.07zm423.94 8.62c0 51.88-42.68 93.4-95.73 92.73-53.52-.68-97.25-43.95-97.25-96.65s43.73-94.2 97.25-92.7c53.06 1.49 95.73 44.74 95.73 96.62"/>
    <path fill="#fff" d="M1132.57 853.71c-93.3-109.62-51.84-197.28-173.81-345.83-167.82-204.4-363.6-181.27-408.45-319.9-12.43-38.41-13.85-91.14 19.48-164.02C314.17 97.68 127.21 333.35 127.21 612.7c0 180.57 146.38 326.95 326.94 326.95h785.67c-47.06-25.65-81.45-55.62-107.26-85.94z" opacity=".3" style="mix-blend-mode:soft-light"/>
    <path fill="#93E7E8" d="M215.38 841.78c96.838 0 175.34-110.322 175.34-246.41 0-136.089-78.502-246.41-175.34-246.41S40.04 459.281 40.04 595.37c0 136.088 78.502 246.41 175.34 246.41"/>
    <path fill="#75A7D6" d="M76.67 703.12c42.344 0 76.67-48.241 76.67-107.75s-34.326-107.75-76.67-107.75S0 535.861 0 595.37s34.326 107.75 76.67 107.75"/>
    <path fill="#93E7E8" d="M1064.7 1390.78c-29.37-137.95-354.29-134.62-363.13-224.79-6.81-69.51 179.74-138.33 203.18-146.98 20.05-7.4 39.95-13.66 59.65-19.01H612.48c-117.14 0-212.11 94.96-212.11 212.11 0 219.54 177.97 397.51 397.5 397.51h214.11c20.57 0 40.78-1.56 60.51-4.58-18.63-23.09-30.78-48.35-33.72-75.92-6.51-61.11 37.32-84.88 25.94-138.33z" opacity=".4" style="mix-blend-mode:multiply"/>
    <path fill="#93E7E8" d="M910.19 1052.75c186.75 0 338.14-18.33 338.14-40.94s-151.39-40.94-338.14-40.94-338.14 18.33-338.14 40.94 151.39 40.94 338.14 40.94"/>
    <g filter="url(#b)">
      <path fill="url(#c)" d="M1652.16 828.11h-409.63c-125.79 0-227.76 101.971-227.76 227.76v409.63c0 125.79 101.97 227.76 227.76 227.76h409.63c125.79 0 227.76-101.97 227.76-227.76v-409.63c0-125.789-101.97-227.76-227.76-227.76"/>
      <path fill="#fff" d="M1190.35 1417.14c-1.22-13.23.88-27.28 2.27-41.32 1.93-19.56 4.84-38.98 8.22-58.34a1024 1024 0 0 1 19.28-87.56c9.35-35.51 19.59-70.76 32.14-105.28 3.2-8.78 6.7-17.44 10.51-25.97 1.9-4.28 4.2-8.36 6.88-12.2 9.98-14.18 23.88-19.44 40.75-17.94 4.09.32 8.12 1.12 12.02 2.38 17.39 5.77 25.11 20.38 19.92 37.96-2.46 8.35-6.61 16.03-10.04 23.99-24.15 55.93-44.31 113.25-59.22 172.34-5.07 20.09-9.99 40.2-13.1 60.71-2.46 16.26-3.78 32.59-2.15 49.02.82 8.3 3.01 16.27 7.53 23.4 8.18 12.98 20.19 17.97 35.13 16.41 11.21-1.17 21.19-5.83 30.64-11.66 11.45-7.06 22.76-14.33 34.15-21.46 4.84-3.01 9.92-5.52 15.6-6.53 5.8-1 11.33-.23 15.78 3.78 8.61 7.76 14.02 17.25 13.7 29.19-.23 8.75-4.36 15.99-9.81 22.55-7.1 8.54-15.81 15.15-25.21 20.86-24.18 14.7-50.41 23.94-78.22 28.83-12.05 2.12-24.22 3.21-36.47 2.08-27.37-2.51-46.66-16.69-58.61-41.1-5.41-11.05-7.92-23.01-9.54-35.16-1.21-9.31-1.77-18.66-2.14-28.99zm356.17-403.19a52.8 52.8 0 0 1 4.08-20.19c2.67-6.4 6.58-12.2 11.5-17.09a52.8 52.8 0 0 1 17.17-11.39 52.8 52.8 0 0 1 20.22-3.95c29.01.11 52.55 23.79 52.49 52.85-.05 29.24-23.78 52.69-53.24 52.61-28.75-.09-52.27-23.88-52.22-52.85zm158.66 385.48a53.7 53.7 0 0 0-11.22-4.22c-18.43-4.78-36.42-10.94-54.24-17.58-7.98-2.98-8.67-5.28-4.46-12.76 3.77-6.69 7.65-13.32 11.55-19.95 15.57-26.62 29.53-54.04 39.59-83.28 6.68-19.44 11.13-39.37 11.74-59.19 0-4.88-.31-9.76-.94-14.59-2.63-18.08-8.93-34.45-22.5-47.25-10.22-9.64-22.44-15.7-36-19.32-19.31-5.14-38.43-5.33-57.37 1.54-28.55 10.35-49.5 29.49-63.28 56.25a236.3 236.3 0 0 0-25.85 90.67c-1.94 25.07 2.14 49.12 12.72 72.01 6.08 13.13 14.13 24.98 23.38 36.07 3.95 4.73 3.95 7.53.27 12-22.6 27.38-47.09 52.84-75.84 73.93-4.99 3.67-9.82 7.53-13.95 12.21-6.35 7.22-7.57 14.95-2.73 23.44 8.4 14.73 20.69 23.06 38.01 22.83 7.5-.1 14.14-2.98 20.25-7.17 17.33-11.91 33.87-24.82 49.17-39.26 14.51-13.69 27.5-28.8 40.72-43.69 6.08-6.84 7.28-7.15 15.75-3.47 22.26 9.74 45.4 17.3 69.12 22.58 8 1.76 15.91 2.47 23.61-1.04 13.72-6.26 20.93-17.14 22.76-32 1.09-8.9-2.62-14.8-10.25-18.75zM1616.03 1248c-9.79 27.81-23.89 53.4-40.27 77.8-.32.49-.67.96-1.05 1.4-2.44 2.73-4.25 2.69-6.53-.19a65.34 65.34 0 0 1-12.62-25.89c-4.28-18.33-3.62-36.66.24-54.96 3.4-16.03 9.61-31.33 18.33-45.2 5.77-9.24 13.69-15.77 24.47-18.15 9.63-2.13 18.03 2.31 22.22 11.25 2.55 5.44 2.89 11.27 3.06 17.13-.17 12.82-3.64 24.87-7.85 36.82z"/>
    </g>
    <path fill="#93E7E8" d="M503.26 1122.4c-25.13 20.6-28.81 57.67-8.21 82.8l169.73 207.1 91.01-74.59-169.73-207.1c-20.6-25.13-57.67-28.81-82.8-8.21"/>
    <path fill="#93E7E8" d="M1035.29 1318.29c-3.67-32.29-32.82-55.48-65.11-51.81l-266.05 30.26 13.3 116.92 266.05-30.26c32.29-3.67 55.48-32.82 51.81-65.11"/>
    <path fill="#4E1AA0" d="M764.5 1426.32c33.339-33.34 33.339-87.39 0-120.73s-87.392-33.34-120.731 0-33.339 87.39 0 120.73 87.392 33.34 120.731 0m216.48-148.94 43.94 107.86c6.53 16.03 31.3 20.8 50.2 9.42 27.69-16.67 57.96-45.12 45.74-86.27-15.46-52.06-61.45-67.05-99.29-70.09-25.68-2.06-48.38 19.94-40.59 39.08"/>
  </g>
  <defs>
    <linearGradient id="c" x1="1790.77" x2="1122.68" y1="913.38" y2="1589.02" gradientUnits="userSpaceOnUse">
      <stop stop-color="#EF6FB7"/>
      <stop offset="1" stop-color="#7242BA"/>
    </linearGradient>
    <clipPath id="a">
      <path fill="#fff" d="M0 0h1879.92v1693.26H0z"/>
    </clipPath>
    <filter id="b" width="899.15" height="885.15" x="980.77" y="808.11" color-interpolation-filters="sRGB" filterUnits="userSpaceOnUse">
      <feFlood flood-opacity="0" result="BackgroundImageFix"/>
      <feColorMatrix in="SourceAlpha" result="hardAlpha" type="matrix" values="0 0 0 0 0 0 0 0 0 0 0 0 0 0 0 0 0 0 127 0"/>
      <feOffset dx="-34" dy="-20"/>
      <feColorMatrix type="matrix" values="0 0 0 0 0.498039 0 0 0 0 0.498039 0 0 0 0 0.498039 0 0 0 0.2 0"/>
      <feBlend in2="BackgroundImageFix" mode="normal" result="effect1_dropShadow_18740_1433"/>
      <feBlend in="SourceGraphic" in2="effect1_dropShadow_18740_1433" mode="normal" result="shape"/>
    </filter>
  </defs>
</svg>
