<svg xmlns="http://www.w3.org/2000/svg" fill="none" viewBox="0 0 280 280">
  <path fill="#E1D5AB" d="M214.459 108.79s-25.039 21.978 3.792 69.04c25.605 41.796-31.947 59.914-56.746 55.062-32.127-6.284-50.572-46.89-75.14-34.024s-48.907-45.436-13.17-66.89c44.454-26.688 15.924-42.196 19.917-61.764 2.865-14.044 43.644-35.757 65.632-10.99 18.502 20.843 27.576 13.387 36.033 10.604 12.197-4.013 38.82 16.86 19.682 38.962"/>
  <path fill="#92B846" d="m143.565 133.557-8.203 33.648a9.775 9.775 0 0 0 7.185 11.819l40.799 9.946c1.049 11.518 10.581 12.369 14.341 12.764a.17.17 0 0 0 .105-.029.2.2 0 0 0 .065-.087.17.17 0 0 0-.002-.108.17.17 0 0 0-.067-.085c-2.701-1.646-3.507-6.159-3.687-9.833l3.029.738a9.78 9.78 0 0 0 11.818-7.185l8.203-33.649a9.78 9.78 0 0 0-7.185-11.818l-54.583-13.307a9.8 9.8 0 0 0-7.398 1.144 9.78 9.78 0 0 0-4.42 6.042"/>
  <path fill="#E1D5AB" d="m211.241 150.156-22.814-5.562a.28.28 0 0 0-.338.206l-1.17 4.801a.28.28 0 0 0 .205.338l22.814 5.562a.28.28 0 0 0 .339-.206l1.17-4.8a.28.28 0 0 0-.206-.339m-3.257 13.362-61.813-15.069a.28.28 0 0 0-.338.206l-1.17 4.8a.28.28 0 0 0 .205.339l61.813 15.069a.28.28 0 0 0 .338-.206l1.17-4.8a.28.28 0 0 0-.205-.339m-3.258 13.362-61.812-15.069a.28.28 0 0 0-.338.206l-1.171 4.8a.28.28 0 0 0 .206.339l61.812 15.069a.28.28 0 0 0 .338-.206l1.171-4.8a.28.28 0 0 0-.206-.339"/>
  <path fill="#6F8A3A" d="m166.536 93.192 13.414 43.078a12.75 12.75 0 0 1-.883 9.712 12.74 12.74 0 0 1-7.493 6.241l-52.231 16.264c-.423 15.06-12.746 16.946-17.603 17.766a.216.216 0 0 1-.231-.136.216.216 0 0 1 .075-.257c3.376-2.361 4.056-8.294 3.99-13.086l-3.878 1.208a12.74 12.74 0 0 1-13.577-4.009 12.8 12.8 0 0 1-2.375-4.367L72.33 122.528a12.74 12.74 0 0 1 8.376-15.953l69.877-21.76a12.737 12.737 0 0 1 15.953 8.377"/>
  <path fill="#E1D5AB" d="m117.186 108.621-37.42 11.637a.28.28 0 0 0-.184.351l1.963 6.309a.28.28 0 0 0 .35.184l37.419-11.637a.28.28 0 0 0 .184-.351l-1.962-6.309a.28.28 0 0 0-.35-.184m47.221 3.999-79.294 24.692a.28.28 0 0 0-.184.351l1.964 6.308a.28.28 0 0 0 .35.184l79.295-24.693a.28.28 0 0 0 .184-.35l-1.964-6.308a.28.28 0 0 0-.351-.184m5.32 17.194L90.414 154.48a.28.28 0 0 0-.184.35l1.962 6.309a.28.28 0 0 0 .35.185l79.313-24.666a.28.28 0 0 0 .184-.351l-1.962-6.309a.28.28 0 0 0-.35-.184"/>
</svg>
