<svg xmlns="http://www.w3.org/2000/svg" viewBox="0 0 347.71 323.37">
  <g data-name="Слой 1" style="isolation:isolate">
    <path fill="#ffdfb7" d="M295.7 302.17H91.29c-8 0-14.51-6.51-14.51-14.51v-153.5c0-8 6.51-14.51 14.51-14.51h204.4c8 0 14.51 6.51 14.51 14.51v153.5c0 8-6.51 14.51-14.51 14.51ZM91.29 120.55c-7.5 0-13.61 6.1-13.61 13.61v153.5c0 7.5 6.1 13.61 13.61 13.61h204.4c7.5 0 13.61-6.1 13.61-13.61v-153.5c0-7.5-6.11-13.61-13.61-13.61z"/>
    <path fill="#ffc680" d="M32.27 143.73h82.43v1H32.27z"/>
    <path fill="#d6d6d6" d="M21.23 185.88 4.74 160.12l8.37 3.79z"/>
    <path fill="#e8e8e8" d="m21.23 185.88-1.01-15.53-5.99-3.41z"/>
    <path fill="#c2c2c2" d="m8.53 166.04-2.06 2.72 14.76 17.12z"/>
    <path fill="#fff3e5" d="M101.27 106.99h204.4c7.76 0 14.06 6.3 14.06 14.06v153.5c0 7.76-6.3 14.06-14.06 14.06h-204.4c-7.76 0-14.06-6.3-14.06-14.06v-153.5c0-7.76 6.3-14.06 14.06-14.06"/>
    <path fill="#f2ab56" d="M319.74 121.05v3.98H87.21v-3.98c0-7.77 6.29-14.06 14.06-14.06h204.4c7.77 0 14.06 6.29 14.06 14.06Z"/>
    <rect width="76.48" height="28.06" x="108.2" y="149.22" fill="#ffdfb7" rx="5.43" ry="5.43"/>
    <path fill="#ffdfb7" d="M179.25 214.99h-65.62a5.89 5.89 0 0 1-5.88-5.88v-17.2a5.89 5.89 0 0 1 5.88-5.88h65.62a5.89 5.89 0 0 1 5.88 5.88v17.2a5.89 5.89 0 0 1-5.88 5.88m-65.62-28.05a4.98 4.98 0 0 0-4.98 4.98v17.2a4.98 4.98 0 0 0 4.98 4.98h65.62c2.74 0 4.98-2.23 4.98-4.98v-17.2c0-2.74-2.23-4.98-4.98-4.98z"/>
    <rect width="62.3" height="4.53" x="201.88" y="223.74" fill="#ffdfb7" rx="1.41" ry="1.41"/>
    <path fill="#ffdfb7" d="M203.29 240.18h59.47c.78 0 1.41.63 1.41 1.41v1.7c0 .78-.63 1.42-1.42 1.42h-59.47c-.78 0-1.41-.63-1.41-1.41v-1.7c0-.78.63-1.41 1.41-1.41Zm87.93-25.19h-81.61c-4.51 0-8.18-3.67-8.18-8.18v-49.86c0-4.51 3.67-8.18 8.18-8.18h81.61c4.51 0 8.18 3.67 8.18 8.18v49.86c0 4.51-3.67 8.18-8.18 8.18m-81.61-65.31c-4.01 0-7.28 3.27-7.28 7.28v49.86c0 4.01 3.26 7.28 7.28 7.28h81.61c4.01 0 7.28-3.27 7.28-7.28v-49.86c0-4.01-3.27-7.28-7.28-7.28z"/>
    <path fill="#f2ab56" d="m287.72 229.7-5.17-4.51c-.42-.37-.47-1.01-.1-1.44.37-.42 1.01-.47 1.44-.1l3.66 3.19 5.21-5.81c.38-.42 1.02-.45 1.44-.08s.45 1.02.08 1.44l-6.55 7.31Zm0 17.46-5.17-4.51c-.42-.37-.47-1.01-.1-1.44.37-.42 1.01-.47 1.44-.1l3.66 3.19 5.21-5.81c.38-.42 1.02-.45 1.44-.08.42.38.45 1.02.08 1.44l-6.55 7.31Z"/>
    <path fill="#ffdfb7" d="M203.29 257.65h59.47c.78 0 1.41.63 1.41 1.41v1.7c0 .78-.63 1.41-1.41 1.41h-59.47c-.78 0-1.41-.63-1.41-1.41v-1.7c0-.78.63-1.41 1.41-1.41"/>
    <path fill="#f2ab56" d="m287.72 264.62-5.17-4.51c-.42-.37-.47-1.01-.1-1.44.37-.42 1.01-.47 1.44-.1l3.66 3.19 5.21-5.82c.38-.42 1.02-.45 1.44-.08s.45 1.02.08 1.44l-6.55 7.31Z"/>
    <path fill="#fff2e2" d="M49.31 36.96h122.6c6.39 0 11.57 5.18 11.57 11.57v71.23c0 6.39-5.18 11.57-11.57 11.57H49.31c-6.39 0-11.57-5.18-11.57-11.57V48.53c0-6.39 5.18-11.57 11.57-11.57" opacity=".83"/>
    <path fill="#ffc680" d="M65.04 91.8c2.12.72 4.39 1.12 6.75 1.15 7.15.09 13.55-3.25 17.62-8.5 2.82-3.64 4.53-8.19 4.59-13.15 0-.49 0-.98-.03-1.47-.12-2.2-.56-4.32-1.28-6.3-3.02-8.33-10.95-14.32-20.34-14.44-5.06-.07-9.73 1.58-13.48 4.41-5.23 3.95-8.65 10.18-8.74 17.24-.12 9.75 6.13 18.1 14.9 21.06Zm-9.41-20.99c.07-5.25 2.59-9.9 6.47-12.86 2.82-2.16 6.36-3.42 10.19-3.37 7.03.09 12.98 4.58 15.25 10.83.54 1.49.87 3.08.96 4.73.02.36.02.73.02 1.1-.05 3.72-1.33 7.13-3.44 9.86a16.43 16.43 0 0 1-13.21 6.38 16.7 16.7 0 0 1-5.07-.86c-6.57-2.22-11.26-8.48-11.17-15.79Z"/>
    <path fill="#8c5b1f" d="m85.08 81.09 4.34 3.36c-4.07 5.25-10.47 8.59-17.62 8.5-2.36-.03-4.63-.43-6.75-1.15l1.76-5.2c1.59.54 3.29.84 5.06.86 5.36.07 10.16-2.44 13.21-6.37"/>
    <path fill="#b57629" d="m92.7 63.53-5.16 1.88c.68 1.89 1 3.87.98 5.83-.05 3.72-1.33 7.13-3.44 9.86l4.34 3.36c2.82-3.64 4.53-8.19 4.59-13.15.03-2.69-.41-5.3-1.31-7.77Z"/>
    <path fill="#f2ab56" d="M58.89 53.5c3.75-2.83 8.42-4.48 13.48-4.41 9.38.12 17.31 6.12 20.34 14.44l-5.16 1.88c-2.27-6.25-8.21-10.75-15.25-10.84-3.83-.05-7.36 1.21-10.19 3.37l-3.22-4.45Z"/>
    <path fill="#fff3e5" d="M131 163.36v-.55c-.04-.82-.21-1.6-.48-2.34a8.16 8.16 0 0 0-7.56-5.37c-1.88-.02-3.62.59-5.01 1.64a8.17 8.17 0 0 0-3.25 6.41c-.05 3.62 2.28 6.72 5.54 7.83.79.27 1.63.42 2.51.43 1 .01 1.95-.15 2.84-.47a8.2 8.2 0 0 0 3.71-2.69 8.1 8.1 0 0 0 1.7-4.89m-14.26-.19c.02-1.95.96-3.68 2.4-4.78a6.08 6.08 0 0 1 3.79-1.25c2.61.03 4.82 1.7 5.67 4.02.2.56.32 1.14.36 1.76 0 .14.01.27 0 .41 0 .59-.1 1.16-.27 1.7a6.1 6.1 0 0 1-1.54 2.56 6.1 6.1 0 0 1-4.38 1.77c-.45 0-.89-.06-1.31-.16-.19-.04-.39-.1-.57-.16a6.125 6.125 0 0 1-4.15-5.87"/>
    <rect width="62.11" height="69.48" x="108.2" y="49.09" fill="#ffc680" rx="10.18" ry="10.18"/>
    <rect width="45.3" height="4.92" x="50.84" y="102.56" fill="#ffdfb7" rx="2.31" ry="2.31"/>
    <rect width="45.3" height="4.92" x="50.84" y="113.65" fill="#ffdfb7" rx="2.31" ry="2.31"/>
    <path fill="#f2ab56" d="M258.37 146.4h81.61c4.27 0 7.73 3.46 7.73 7.73v49.86c0 4.27-3.46 7.73-7.73 7.73h-81.61c-4.27 0-7.73-3.46-7.73-7.73v-49.85c0-4.27 3.46-7.73 7.73-7.73Z" opacity=".78"/>
    <path fill="#fff3e5" d="M263.34 154.21h26.78c1.61 0 2.92 1.31 2.92 2.92v21.84c0 1.61-1.31 2.92-2.92 2.92h-26.78c-1.61 0-2.92-1.31-2.92-2.92v-21.84c0-1.61 1.31-2.92 2.92-2.92m36.86 0h38.55c.94 0 1.71.77 1.71 1.71v3.96c0 .94-.77 1.71-1.71 1.71H300.2c-.94 0-1.71-.77-1.71-1.71v-3.97c0-.94.77-1.71 1.71-1.71Zm0 11.54h38.55c.94 0 1.71.77 1.71 1.71v3.96c0 .94-.77 1.71-1.71 1.71H300.2c-.94 0-1.71-.77-1.71-1.71v-3.96c0-.94.77-1.71 1.71-1.71"/>
    <rect width="17.97" height="3.81" x="322.49" y="198.97" fill="#fff3e5" rx="1.55" ry="1.55"/>
    <path fill="#f2ab56" d="M73.77 190.09h65.62c3 0 5.43 2.43 5.43 5.43v17.2c0 3-2.43 5.43-5.43 5.43H73.77c-3 0-5.43-2.43-5.43-5.43v-17.2c0-3 2.43-5.43 5.43-5.43" opacity=".78" style="mix-blend-mode:multiply"/>
    <path fill="#bcc0c2" d="m267.36 43.55-.21-.88c1.6-.37 2.43-.7 2.44-.7l.33.84s-.9.35-2.56.74M6.32 150.82c-.56-1.56-1.09-3.22-1.59-4.93l.87-.25c.49 1.69 1.02 3.33 1.57 4.87l-.85.3Zm-2.9-9.93c-.39-1.64-.75-3.34-1.07-5.06l.89-.17c.32 1.7.68 3.39 1.07 5.02l-.88.21Zm-1.93-10.15c-.25-1.68-.47-3.41-.66-5.12l.9-.1c.19 1.71.41 3.42.65 5.09l-.9.13ZM.37 120.47c-.12-1.71-.22-3.44-.28-5.16l.9-.03c.06 1.71.15 3.43.27 5.13l-.9.06Zm.53-10.32H0c0-1.72.03-3.45.09-5.17l.9.03c-.06 1.7-.09 3.43-.09 5.13Zm.38-10.26-.9-.07c.13-1.72.29-3.45.47-5.14l.9.1c-.19 1.69-.35 3.41-.47 5.11m1.13-10.2-.9-.13c.26-1.71.55-3.42.87-5.1l.89.17c-.32 1.66-.61 3.37-.86 5.06m1.94-10.08-.88-.21c.39-1.68.83-3.37 1.29-5.01l.87.24c-.46 1.63-.89 3.3-1.28 4.97Zm2.77-9.88-.86-.28c.54-1.64 1.13-3.28 1.74-4.87l.85.32c-.6 1.58-1.18 3.2-1.72 4.83Zm3.68-9.57-.83-.37c.7-1.58 1.44-3.16 2.21-4.68l.81.41a99 99 0 0 0-2.19 4.64m4.61-9.15-.79-.45c.86-1.5 1.76-2.99 2.69-4.42l.76.49c-.92 1.42-1.82 2.89-2.67 4.38Zm241.64-6.31v-.91c1.74-.02 3.45-.12 5.08-.3l.1.9c-1.66.18-3.4.28-5.18.3Zm-5.18-.14c-1.68-.11-3.42-.28-5.15-.51l.12-.9c1.72.23 3.43.4 5.09.51zm-10.26-1.36a96 96 0 0 1-5.04-1.14l.22-.88c1.67.43 3.35.81 5 1.13l-.17.89Zm-220.62-.79-.73-.53a91 91 0 0 1 3.18-4.08l.7.58a89 89 0 0 0-3.15 4.04Zm210.6-1.76c-1.61-.5-3.26-1.06-4.9-1.65l.31-.85c1.62.59 3.26 1.14 4.86 1.64zm-9.72-3.52c-1.56-.64-3.16-1.34-4.74-2.06l.38-.82c1.57.72 3.15 1.41 4.7 2.05l-.34.84Zm-194.36-2.6-.66-.62c1.17-1.26 2.4-2.49 3.64-3.68l.62.66a82 82 0 0 0-3.6 3.64m184.98-1.7c-1.51-.76-3.05-1.57-4.57-2.4l.43-.79c1.51.83 3.04 1.63 4.54 2.39l-.41.81Zm-9.07-4.95c-.59-.35-1.18-.7-1.78-1.06-.84-.51-1.73-1.03-2.65-1.55l.45-.79c.92.53 1.82 1.05 2.67 1.57.59.36 1.19.71 1.77 1.06l-.46.78Zm-168.49-.41-.58-.69c.9-.76 1.83-1.51 2.77-2.24.43-.33.85-.66 1.28-.98l.54.72c-.42.32-.85.64-1.27.97-.93.72-1.85 1.46-2.74 2.21Zm159.56-4.68c-1.48-.78-3.02-1.57-4.58-2.33l.4-.81c1.57.77 3.11 1.56 4.6 2.34zM43.1 21.29l-.51-.75c1.42-.98 2.87-1.93 4.32-2.84l.48.77c-1.44.9-2.88 1.85-4.29 2.81Zm142.17-3.03c-1.54-.71-3.12-1.41-4.7-2.08l.36-.83c1.58.68 3.17 1.38 4.72 2.09zm-133.48-2.4-.44-.79c1.49-.84 3.03-1.66 4.56-2.44l.41.81c-1.52.77-3.04 1.58-4.52 2.42Zm124.03-1.64c-1.58-.63-3.2-1.25-4.8-1.84l.31-.85c1.61.59 3.23 1.22 4.82 1.85zM60.94 11.23l-.37-.83c1.56-.7 3.16-1.38 4.76-2.01l.33.84c-1.58.63-3.17 1.3-4.72 2m105.24-.58c-1.62-.55-3.26-1.09-4.88-1.6l.27-.86c1.63.51 3.28 1.05 4.91 1.6l-.29.86Zm-9.81-3.07c-1.65-.47-3.32-.92-4.96-1.34l.22-.88c1.65.42 3.33.87 4.98 1.35l-.25.87Zm-85.9-.13-.29-.86c1.62-.56 3.27-1.09 4.92-1.58l.26.87c-1.63.48-3.28 1.01-4.88 1.56Zm75.94-2.41c-1.67-.38-3.36-.74-5.03-1.06l.17-.89c1.67.33 3.37.69 5.05 1.07l-.2.88Zm-66.11-.5-.22-.88c1.66-.41 3.35-.79 5.04-1.14l.18.89c-1.67.34-3.36.72-5 1.13m56.03-1.48c-1.69-.28-3.4-.54-5.08-.76l.12-.9c1.69.23 3.4.49 5.11.77zM90.35 2.5l-.14-.89c1.68-.27 3.41-.51 5.12-.71l.11.9c-1.7.2-3.41.43-5.08.7Zm35.8-.81a183 183 0 0 0-5.12-.44l.06-.9c1.7.12 3.43.27 5.15.44zm-25.62-.39-.07-.9c1.7-.13 3.43-.23 5.16-.3l.03.9c-1.71.07-3.43.17-5.12.3m15.38-.31c-1.64-.06-3.3-.08-4.92-.08h-.21V0h.21c1.63 0 3.3.03 4.96.09l-.03.9Zm-106.54 157c-.38-.75-.76-1.55-1.13-2.37l.83-.37c.36.81.74 1.59 1.11 2.33z"/>
    <path fill="#ffc680" d="M102.81 237.74h6.96v25.28h-6.96zm9.9-2.55h6.96v27.83h-6.96zm10.04 5.3h6.96v22.54h-6.96zm10.03-10.45h6.96v32.98h-6.96zm10.54 3.29h6.96v29.7h-6.96zm10.67 4.41h6.96v25.28h-6.96zm9.9-2.55h6.96v27.83h-6.96zm10.04 5.3h6.96v22.54h-6.96z"/>
    <path fill="#fff3e5" d="M92.08 203.23v-.12c-.04-.82-.21-1.6-.48-2.34a8.16 8.16 0 0 0-7.56-5.37c-1.88-.02-3.62.59-5.01 1.64a8.17 8.17 0 0 0-3.25 6.41c-.05 3.62 2.28 6.72 5.54 7.83.79.27 1.63.42 2.51.43a8.2 8.2 0 0 0 6.55-3.16 8.1 8.1 0 0 0 1.67-4.2c.02-.23.03-.45.04-.68v-.43Zm-14.25.24c.02-1.95.96-3.68 2.4-4.78a6.08 6.08 0 0 1 3.79-1.25c2.61.03 4.82 1.7 5.67 4.02.2.55.32 1.14.36 1.75 0 .14.01.27 0 .41 0 .59-.1 1.16-.27 1.7a6.1 6.1 0 0 1-1.54 2.56 6.1 6.1 0 0 1-4.38 1.77c-.45 0-.89-.06-1.31-.16-.19-.04-.38-.1-.57-.16a6.125 6.125 0 0 1-4.15-5.87Z"/>
    <rect width="68.39" height="53.46" x="210.59" y="269.9" fill="#f2ab56" opacity=".74" rx="6.95" ry="6.95"/>
    <path fill="#fff3e5" d="M246.23 275.37h24.41c2.35 0 4.25 1.9 4.25 4.25v33.04c0 2.35-1.9 4.25-4.25 4.25h-24.41c-2.35 0-4.25-1.9-4.25-4.25v-33.04c0-2.35 1.9-4.25 4.25-4.25m-26 0h12.5c1.44 0 2.61 1.17 2.61 2.61v.71c0 1.44-1.17 2.6-2.6 2.6h-12.5c-1.44 0-2.6-1.17-2.6-2.6v-.71c0-1.44 1.17-2.61 2.61-2.61Zm0 11.06h12.5c1.44 0 2.6 1.17 2.6 2.6v.71c0 1.44-1.17 2.6-2.6 2.6h-12.5c-1.44 0-2.6-1.17-2.6-2.6v-.71c0-1.44 1.17-2.6 2.6-2.6"/>
  </g>
</svg>
