<svg xmlns="http://www.w3.org/2000/svg" xmlns:xlink="http://www.w3.org/1999/xlink" fill="none" viewBox="0 0 100 100">
  <g clip-path="url(#a)">
    <mask id="b" width="100" height="100" x="0" y="0" maskUnits="userSpaceOnUse" style="mask-type:luminance">
      <path fill="#fff" d="M100 0H0v100h100z"/>
    </mask>
    <g mask="url(#b)">
      <path fill="#617A3A" d="M54.52 85.25H78.4c.32.07.93.61 1.1.9.49.86.57 5.3.36 6.32-.17.86-1.29 1.78-2.19 1.8l-22.96-.07c-2.29-.48-1.96-4.03-1.84-5.85.08-1.31.2-2.68 1.65-3.1m-32.84 0h23.87c.63.28 1.18.93 1.31 1.61.15.83.16 4.96 0 5.76-.18.9-1.19 1.5-2.03 1.65l-22.84-.04c-1.12-.38-1.69-.99-1.81-2.18-.11-1.13-.14-4.12.04-5.19.13-.79.69-1.39 1.46-1.61"/>
      <path fill="#F4CB4E" d="M39.94 6.36c1.26-.26 1.72.23 2.22 1.24.38.79 2.04 4.49 2.11 5.11.18 1.62-1.64 2.69-2.9 1.67-.35-.28-.91-1.69-1.16-2.22-.3-.66-1.61-3.57-1.62-4.06 0-.72.63-1.59 1.35-1.73zm18.88-.01c1.29-.38 2.54.46 2.47 1.85l-2.45 5.85c-1.19 1.44-3.47.57-3.19-1.35.08-.53 1.92-4.83 2.26-5.41.15-.25.65-.86.91-.93zM28.17 41.47h9.75c.13 0 .59-.5.69-.68.91-1.5 1.45-3.63 2.32-5.21l.67-1.02c1.23 2.52 2.36 5.14 3.48 7.72.94 2.17 1.89 5.3 3.01 7.27.65 1.14 1.91 1.25 2.7.19l3.61-8.21 5.61-.07c.95.85 1.65 1.51 3.03 1.34 2.46-.3 3.11-3.65 1.2-5.11-1.37-1.05-3.25-.59-4.1.85l-7.14.04c-.31.14-.57.33-.77.62-.91 1.34-1.71 4.13-2.56 5.73-.08.15.08.3-.32.22l-6.33-15.24c-.41-.84-2.02-1.03-2.56-.29l-4.03 8.9h-9.62c-1.49-4.5-1.74-9.82.72-14.04 5.03-8.62 17.36-8.04 22.36.25 3.65-5.56 10.45-8.08 16.73-5.37 7.89 3.4 8.8 12.45 6.26 19.76-2.77 7.96-11.94 16.83-18.78 21.59-3.69 2.57-4.8 2.4-8.41-.16-1.8-1.27-3.72-2.84-5.39-4.28-4.78-4.13-9.44-9.03-12.12-14.81zM49.62 4.36c.94-.15 1.92.45 2.04 1.42.12 1.04.16 5.19-.01 6.14-.31 1.67-3.15 1.72-3.37-.14-.12-.97-.15-5.43.04-6.26.12-.53.78-1.06 1.31-1.15z"/>
      <path fill="#617A3A" d="m56.72 80.76 1.9-14.58c.67-3.37 2.59-5.01 5.16-6.96 3.34-2.55 6.88-4.88 10.22-7.43 1.79-.79 3.65.91 2.72 2.72-2.25 3.4-5.37 6.52-7.65 9.85-.53.77-.87 1.27-.56 2.22.42 1.27 1.51 1.69 2.78 1.38.69-.17 1.36-1.15 1.83-1.7 2.03-2.39 4.37-5.37 6.2-7.92.71-.98 1.41-1.83 1.71-3.05.75-3.08-.59-6.12-3.46-7.47-.1-2.62.3-5.21.47-7.8.16-2.44.1-5.26.47-7.66.34-2.18 2.93-3.4 4.85-2.27 1.14.67 1.38 1.6 1.66 2.79 2.05 8.54 2.93 17.72 4.83 26.33 1.01 6.83-3.85 11.48-7.83 16.26-1.48 1.78-3 3.55-4.56 5.27-1.57.1-3.16-.02-4.73.03-4.74.14-10.17.47-14.89.17-.39-.03-.75-.16-1.14-.17zM27.76 67.51c2.02 1.52 4.76-.26 3.39-2.7l-8.12-10.45c-.72-2.09 1.56-3.54 3.28-2.36 3.43 2.85 7.26 5.2 10.74 7.99 2.5 2 3.61 3.38 4.26 6.63l1.88 14.14-1.29.17-19.42-.09-10.2-12.21c-1.99-2.9-2.51-6.09-2.22-9.56 1.81-8.51 2.76-17.25 4.66-25.73.37-1.66.73-3.2 2.68-3.61 2.59-.54 3.73 1.28 4 3.54.39 3.28.39 6.68.62 9.97.06.89.6 3.91.23 4.53-.09.16-1.56 1.05-2 1.53-5.56 6.21 4.62 13.21 7.5 18.21z"/>
    </g>
  </g>
  <defs>
    <clipPath id="a">
      <path fill="#fff" d="M0 0h100v100H0z"/>
    </clipPath>
  </defs>
</svg>
