<svg xmlns="http://www.w3.org/2000/svg" xmlns:xlink="http://www.w3.org/1999/xlink" fill="none" viewBox="0 0 280 280">
  <path fill="#E1D5AB" d="M52.663 127.029s38.771-1.552 47.15-65.283c7.44-56.6 72.818-30.838 91.716-8.276 24.481 29.227 11.431 79.504 43.1 85.855s10.989 76.967-37.083 70.208c-59.8-8.408-45.332 26.536-63.284 41.326-12.883 10.616-65.71.397-67.471-38.136-1.482-32.426-15.16-32.323-24.854-36-13.983-5.302-22.793-43.706 10.726-49.694"/>
  <path fill="#BBE175" d="m184.462 197.807-38.091-37.639-7.543 7.633 38.092 37.639z"/>
  <path fill="#6F8A3A" d="m199.013 207.92-29.635-29.283a.42.42 0 0 0-.594.004l-11.216 11.351a.42.42 0 0 0 .003.594l29.635 29.283a.42.42 0 0 0 .594-.003l11.217-11.352a.42.42 0 0 0-.004-.594m-86.402-28.823c26.205 0 47.449-21.244 47.449-47.449 0-26.206-21.244-47.45-47.449-47.45-26.206 0-47.45 21.244-47.45 47.45 0 26.205 21.244 47.449 47.45 47.449"/>
  <path fill="#E1D5AB" d="M112.611 171.355c21.929 0 39.707-17.777 39.707-39.707s-17.778-39.707-39.707-39.707-39.707 17.777-39.707 39.707 17.777 39.707 39.707 39.707"/>
  <g clip-path="url(#a)">
    <mask id="b" width="69" height="69" x="152" y="74" maskUnits="userSpaceOnUse" style="mask-type:luminance">
      <path fill="#fff" d="m173.483 74 47.076 21.483-21.482 47.076L152 121.077z"/>
    </mask>
    <g mask="url(#b)">
      <path fill="#80A13E" d="M206.366 109.032c2.075-10.002-3.968-17.69-10.912-20.858l-.019-.009c-6.924-3.16-16.702-2.716-22.897 5.407-6.914 9.074-4.627 20.474-1.478 28.429a11.73 11.73 0 0 0 6.045 6.384 11.63 11.63 0 0 0 8.764.374c8.072-2.835 18.173-8.558 20.497-19.727m-21.393 2.111a6.793 6.793 0 0 1 5.635-12.359 6.79 6.79 0 0 1 3.361 8.998 6.795 6.795 0 0 1-8.998 3.361"/>
    </g>
  </g>
  <g clip-path="url(#c)">
    <mask id="d" width="34" height="34" x="84" y="188" maskUnits="userSpaceOnUse" style="mask-type:luminance">
      <path fill="#fff" d="m84.555 200.809 20.636-12.254 12.254 20.636-20.636 12.254z"/>
    </mask>
    <g mask="url(#d)">
      <path fill="#80A13E" d="M106.599 197.546c-3.261-3.436-7.788-3.167-10.832-1.359l-.009.005c-3.035 1.802-5.452 5.645-3.996 10.153 1.629 5.034 6.577 7.178 10.44 8.083a5.44 5.44 0 0 0 4.031-.615 5.4 5.4 0 0 0 2.461-3.24c1.055-3.825 1.546-9.187-2.095-13.027m-4.854 8.709a3.13 3.13 0 0 1-2.386.345 3.14 3.14 0 0 1-1.93-1.443 3.16 3.16 0 0 1-.345-2.387 3.15 3.15 0 0 1 1.443-1.931 3.153 3.153 0 0 1 4.317 1.1 3.15 3.15 0 0 1-1.099 4.317"/>
    </g>
  </g>
  <defs>
    <clipPath id="a">
      <path fill="#fff" d="m173.483 74 47.077 21.483-21.483 47.077L152 121.077z"/>
    </clipPath>
    <clipPath id="c">
      <path fill="#fff" d="m84.555 200.809 20.636-12.254 12.254 20.637-20.636 12.253z"/>
    </clipPath>
  </defs>
</svg>
