<svg xmlns="http://www.w3.org/2000/svg" fill="none" viewBox="0 0 280 280">
  <path fill="#E1D5AB" d="M52.663 127.029s38.771-1.552 47.15-65.283c7.44-56.6 72.818-30.838 91.716-8.276 24.481 29.227 11.431 79.504 43.1 85.855s10.989 76.967-37.083 70.208c-59.8-8.408-45.332 26.536-63.284 41.326-12.883 10.616-65.71.397-67.471-38.136-1.482-32.426-15.16-32.323-24.854-36-13.983-5.302-22.793-43.706 10.726-49.694"/>
  <path fill="#BBE175" d="m184.462 197.807-38.091-37.639-7.543 7.633 38.092 37.639z"/>
  <path fill="#6F8A3A" d="m199.013 207.92-29.635-29.283a.42.42 0 0 0-.594.004l-11.216 11.351a.42.42 0 0 0 .003.594l29.635 29.283a.42.42 0 0 0 .594-.003l11.217-11.352a.42.42 0 0 0-.004-.594m-86.402-28.823c26.205 0 47.449-21.244 47.449-47.449 0-26.206-21.244-47.45-47.449-47.45-26.206 0-47.45 21.244-47.45 47.45 0 26.205 21.244 47.449 47.45 47.449"/>
  <path fill="#E1D5AB" d="M112.611 171.355c21.929 0 39.707-17.777 39.707-39.707s-17.778-39.707-39.707-39.707-39.707 17.777-39.707 39.707 17.777 39.707 39.707 39.707"/>
  <path fill="#80A13E" d="M192.83 88.753c-11.13-3.608-23.158 2.494-26.781 13.67-3.607 11.13 2.494 23.158 13.67 26.78s23.173-2.539 26.781-13.67-2.54-23.172-13.67-26.78m-3.359 10.362a6.613 6.613 0 0 1 .946 12.188 6.61 6.61 0 0 1-9.357-4.14 6.6 6.6 0 0 1 .098-3.843c1.115-3.439 4.874-5.32 8.313-4.205m-8.403 25.926a16.75 16.75 0 0 1-8.962-6.905c3.923-2.229 8.024-2.85 11.734-1.647s6.727 4.08 8.537 8.217a16.75 16.75 0 0 1-11.309.335m-80.877 65.135a10.98 10.98 0 0 0-5.95 10.644 10.977 10.977 0 0 0 13.926 9.691 11 11 0 0 0 5.364-3.439 10.98 10.98 0 0 0 1.424-12.111 10.985 10.985 0 0 0-14.764-4.785m2.556 5.008a3.414 3.414 0 0 1 4.838 2.119 3.4 3.4 0 0 1-.044 1.984 3.4 3.4 0 0 1-1.14 1.624 3.409 3.409 0 0 1-5.341-3.751 3.42 3.42 0 0 1 1.687-1.977zm6.396 12.53a8.65 8.65 0 0 1-5.791.75c.618-2.245 1.888-3.968 3.682-4.883 1.793-.916 3.944-.966 6.115-.117a8.65 8.65 0 0 1-4.006 4.249z"/>
</svg>
