<svg xmlns="http://www.w3.org/2000/svg" data-name="Layer 1" viewBox="0 0 456.27 434.2">
  <path fill="#aec47e" d="M68.42 245.34c10.7 9.67 23.2 9.75 35.94 5.92 11.51-3.46 21.95-9.38 32.04-15.91 23.47-15.21 42.47-35.36 61.32-55.6 17.32-18.58 34.01-37.78 53.79-53.85 16.34-13.28 34.14-23.39 55.66-26.2 18.2-2.38 35.1 1.5 51.55 8.41 7.06 2.97 13.66 7.03 20.52 10.48 1 .5 2.32.34 3.5.49-.06-1.17.15-2.44-.23-3.49-1.54-4.25-3.14-8.48-4.94-12.62-8.98-20.68-21.11-39.3-36.69-55.63-19.43-20.37-42.65-34.6-69.85-41.84-13.41-3.57-27.14-5.95-41.21-4.58-.01-.31-.02-.62-.04-.93-8.14.78-16.27 1.55-24.41 2.33-14.12 1.36-27.4 5.91-40.04 11.91-24.2 11.49-43.78 28.83-59.96 50.03-12.83 16.82-23.18 35.1-31.42 54.61-7.41 17.55-14.15 35.27-17.39 54.15-3.02 17.57-4.08 35.14.47 52.61 1.96 7.53 5.45 14.36 11.36 19.7Z"/>
  <path fill="#f5f1e3" d="M275.33 320.94c-5.56.1-11.13 0-16.7.04-4.56.03-5.02.47-5.03 5.01-.04 10.25-.18 20.5.02 30.74.12 6.31-4.28 13.78-11.03 15.88-12.5 3.9-22.4-2.52-22.46-15.64-.05-10.5-.1-21 .04-31.5.04-3.45-1.42-4.91-4.7-4.85-5.81.1-11.63.21-17.44.33-4.59.09-5.15.66-5.16 5.39-.02 9.49.06 18.97 0 28.46-.06 9.81-3.62 14.19-12.86 17.58-11.74 4.31-26.35-2.46-25.9-18.52.69-24.52.19-49.08.17-73.62 0-5.3-.87-6.12-6.21-6.15-5.19-.02-10.37-.05-15.56.01-4.72.05-5.54.89-5.55 5.55-.02 13.79 0 27.58 0 41.36h.07c0 13.66-.3 27.33.16 40.98.17 4.91 1.31 10.17 3.48 14.55 6.16 12.47 16.4 20.09 30.12 23.02 15.32 3.28 29.55.96 42.54-7.95 1.86-1.27 3.22-1.41 5.1-.16 5.56 3.71 11.25 6.91 18.04 8.31 15.4 3.2 29.09.29 40.9-10.19 5.78-5.13 10.66-11.46 11.26-19.18 1.15-14.85 1.16-29.8 1.61-44.71.1-3.31-1.52-4.82-4.88-4.76Zm57.54 52.46c-3.59-.04-7.53-1.38-10.67-3.2-6.52-3.78-7.85-10.38-7.84-17.39q.06-36.615.06-73.23c0-4.61-.78-5.39-5.24-5.43-5.31-.05-10.63-.05-15.94.02-4.58.06-5.56 1.07-5.56 5.64-.03 13.28 0 26.56 0 39.84h.02c0 12.02-.36 24.05.15 36.04.27 6.32 1.1 12.94 3.33 18.8 5.09 13.41 15.19 21.89 29.34 24.66 6.39 1.25 13.05 1.48 19.6 1.53 22.89.18 45.79.21 68.68-.01 5.9-.06 12.06-.4 17.64-2.11 17.23-5.26 28.65-18.54 29.55-37.48.57-11.99.13-24.03.22-36.04.02-2.94-1.36-4.13-4.14-4.12-4.81.02-9.61-.02-14.42.02-6.52.05-6.55.16-6.59 6.57-.06 9.35.53 18.79-.51 28.04-1.45 12.92-7.14 17.49-19.88 17.79-25.91.62-51.85.31-77.78.05ZM33.18 427.34c13.64 3.93 27.77 4.07 41.75 2.14 6.52-.9 13.27-2.56 19.09-5.5 16.5-8.34 24.36-22.8 24.93-40.84.6-19.08.12-38.18.2-57.28.02-3.65-1.72-4.96-5.11-4.93-5.69.05-11.38-.05-17.07 0-4.38.04-4.92.62-4.94 5.18-.03 9.48 0 18.97 0 28.45h-.13c0 9.74.34 19.49-.1 29.2-.37 8.12-5.75 15.8-14.31 17.15-12 1.88-23.9 2.14-35.8-.24-6.42-1.28-10.04-5.67-12.23-11.64-2.89-7.88-2.25-16.04-1.57-24.03.84-9.84 6.44-16.68 17.81-16.58 8.34.07 16.67-.08 25.01-.1 4.41-.01 5.46-.91 5.51-5.24.07-5.82-.05-11.63.02-17.45.04-3.16-1.24-4.57-4.53-4.53-9.48.11-18.97.07-28.45 0-9.31-.07-17.65 2.78-24.96 8.42-8.11 6.25-13.76 14.09-16.47 24.24-2.41 9.03-1.24 18.1-1.77 27.14-.45 7.65 1.26 14.82 4.53 21.63 5.93 12.37 15.45 21.01 28.59 24.79Zm263.71-170.85c7.46 0 14.92.17 22.38-.06 5.59-.17 7.83-2.8 7.96-8.34.36-15-1.54-29.63-6.27-43.94-6.41-19.4-17.68-34.42-37.09-42.26-10.69-4.32-21.33-3.72-31.26 2.2-14.85 8.85-20.96 23.14-22.44 39.47-.64 7.03.54 14.3 1.56 21.37 1.2 8.29 5.66 14.97 11.98 20.43 8.21 7.1 18.24 9.61 28.57 10.55 8.15.74 16.41.15 24.63.15v.42ZM252.74 410.9c-9.04-.47-18.14-.49-27.18 0-5.41.29-8.97 5.75-8.61 11.52.32 5.2 4.85 9.63 10.2 9.79 3.91.12 7.83.02 11.74.02v-.04c4.17 0 8.34.13 12.5-.03 5.2-.2 9.53-4.54 9.92-9.66.42-5.51-3.37-11.32-8.57-11.6m-79.22-1.31c-6.14.49-11.32 5.32-11.48 12.84-.12 5.81 6.13 11.73 12.14 11.76 6.16 0 11.77-5.25 12.27-12.14.44-6.05-6.62-12.97-12.93-12.47Z"/>
</svg>
