<svg xmlns="http://www.w3.org/2000/svg" xmlns:xlink="http://www.w3.org/1999/xlink" data-name="Layer 1" viewBox="0 0 43.3 43.29">
  <defs>
    <linearGradient id="a" x1="29.43" x2="7.78" y1="1.14" y2="38.63" gradientUnits="userSpaceOnUse">
      <stop offset="0" stop-color="#21b78b"/>
      <stop offset="1" stop-color="#0f7d5e"/>
    </linearGradient>
  </defs>
  <path fill="url(#a)" d="M43.2 19.67c-.05-.93-.22-1.85-.42-2.76-.54-2.45-1.53-4.81-2.88-6.92C36.85 5.2 31.85 1.68 26.28.51 25.47.32 24.63.19 23.8.12 22.71 0 21.6-.03 20.5.04c-.9.03-1.8.14-2.68.31-.81.11-1.59.34-2.38.55-.74.23-1.46.49-2.17.78-.67.29-1.34.6-1.98.96-.64.34-1.26.73-1.85 1.14-.15.11-.3.21-.46.29C7.5 2.95 6 1.84 4.45.83 4.02.57 3.61.27 3.13.11 2.32-.16 1.41.06.78.62c-.59.52-.84 1.34-.77 2.11v3.09C0 6.86.01 7.91.01 8.95v10.28c0 1.47-.07 2.95.1 4.42.11 1.51.43 3.01.88 4.45 2.05 6.7 7.59 12.25 14.33 14.22v.02c1.41.41 2.84.72 4.3.84 1.61.16 3.25.15 4.86-.09.86-.07 1.71-.28 2.55-.47.97-.26 1.93-.57 2.85-.95.87-.37 1.73-.77 2.55-1.26.73-.41 1.43-.87 2.1-1.37.78-.58 1.53-1.21 2.22-1.89.54-.51 1.04-1.07 1.52-1.64.47-.56.91-1.14 1.32-1.75q.555-.84 1.05-1.71c.34-.65.67-1.32.97-2 .32-.81.64-1.63.86-2.47.19-.69.4-1.39.46-2.1.18-.75.27-1.54.3-2.32.1-1.16.1-2.34-.03-3.5Zm-13.63 3.94-1.6 1.6-1.82 1.82c-.57.58-1.15 1.15-1.72 1.72l-1.74 1.74c-.53.51-1.02 1.08-1.62 1.52-.75.47-1.63.7-2.51.69-1.02-.07-2.02-.47-2.76-1.19-2.27-2.26-4.53-4.53-6.8-6.8-.56-.55-.93-1.26-1.13-2.01-.21-1.03-.08-2.14.45-3.06.41-.72 1.03-1.28 1.74-1.69.78-.36 1.65-.52 2.51-.42.93.14 1.82.56 2.46 1.25 1.23 1.23 2.45 2.46 3.69 3.69.37-.35.73-.72 1.09-1.09q.78-.75 1.53-1.53c.49-.46.97-.94 1.43-1.43.34-.3.64-.63.96-.94.52-.51 1.03-1.02 1.54-1.54.49-.47.96-.95 1.43-1.43.51-.5 1.01-1.01 1.51-1.51.51-.52 1.14-.92 1.83-1.14.88-.25 1.83-.23 2.7.06 1.11.43 2 1.3 2.49 2.38.36.99.4 2.1.04 3.09-.26.7-.73 1.3-1.27 1.81-.48.48-.96.95-1.44 1.44l-1.53 1.53c-.49.49-.98.97-1.47 1.46Z"/>
</svg>
