<svg xmlns="http://www.w3.org/2000/svg" fill="none" viewBox="0 0 280 280">
  <path fill="#F5EFDB" d="M180.597 54.607s-29.949 37.936-77.868 15.307-95.837 38.602-54.574 75.872.884 57.75 28.917 80.591c31.861 25.961 59.6-26.683 84.89-14.703 55.818 26.44 97.169 15.973 87.852-14.642-16.356-53.74-37.271-57.236-21.298-85.189s-19.279-86.073-47.919-57.236"/>
  <path fill="#80A13E" d="m164.292 159.527-2.366 12.703-11.27 60.385-20.3-3.791 13.016-69.755.619-3.324z"/>
  <path fill="#BBE175" d="m214.288 129.149-7 37.528a.87.87 0 0 1-.356.547.85.85 0 0 1-.638.134l-98.345-18.342 11.575-62.062 74.68 13.929c13.535 2.523 22.525 15.176 20.084 28.266"/>
  <path fill="#80A13E" d="m140.53 116.555-6.946 37.237-51.621-9.628 6.945-37.237c2.557-13.71 16.186-22.67 30.441-20.011 14.255 2.658 23.738 15.928 21.181 29.639"/>
  <path fill="#6F8A3A" d="M164.562 133.962c-3.804-.71-6.314-4.407-5.598-8.246s4.39-6.384 8.194-5.674a6.98 6.98 0 0 1 5.316 4.592l48.052 8.962-1.298 6.96-48.052-8.962a6.99 6.99 0 0 1-6.614 2.368m-25.745-16.723-6.767 36.28-48.63-9.07 6.768-36.28c2.491-13.358 15.398-22.157 28.826-19.652s22.294 15.364 19.803 28.722"/>
  <path fill="#fff" d="M165.924 130.446a3.54 3.54 0 1 0 0-7.081 3.54 3.54 0 0 0 0 7.081"/>
  <path fill="#80A13E" d="m221.082 133.571-4.245 22.758a.375.375 0 0 1-.439.301l-11.158-2.081a.08.08 0 0 1-.047-.031.08.08 0 0 1-.012-.056l4.3-23.055a.08.08 0 0 1 .031-.047.08.08 0 0 1 .056-.012l11.454 2.137q.03.005.048.031a.08.08 0 0 1 .012.055"/>
  <path fill="#fff" d="M99.514 131.43c.47 3.456 4.262 7.565 4.262 7.565-5.78.409-8.91-2.859-10.256-4.845a24.6 24.6 0 0 1-5.105.906c-11.866.841-22.08-6.905-22.817-17.311s8.281-19.515 20.147-20.356c11.865-.84 22.078 6.905 22.816 17.311.479 6.768-3.173 12.989-9.047 16.73"/>
  <path fill="#BBE175" d="M133.634 153.815c-.537 1.36-10.363 41.875-42.16 35.945-34.866-5.903-9.646-45.608-9.646-45.608z"/>
  <path fill="#80A13E" d="M87.079 119.792a2.95 2.95 0 1 0 0-5.9 2.95 2.95 0 0 0 0 5.9m-13.207-1.286a2.968 2.968 0 1 0 0-5.936 2.968 2.968 0 0 0 0 5.936m26.287 2.543a2.967 2.967 0 1 0 0-5.935 2.967 2.967 0 1 0 0 5.935"/>
  <path fill="#6F8A3A" d="m164.292 159.527-2.366 12.703-18.554-13.161.619-3.324z"/>
</svg>
